# xmcd
#
# Track frame offsets:
#	150
#	30920
#	44823
#	63430
#	80510
#	100788
#	159260
#	175863
#	198555
#	227723
#	275995
#
# Disc length: 3947 seconds
#
# Revision: 7
# Processed by: cddbd v1.5.2PL0 Copyright (c) Steve Scherf et al.
# Submitted via: EasyCDDAExtractor 15.3.0.1
#
DISCID=920f690b
DTITLE=Emmanuel - En Gira
DYEAR=1993
DGENRE=Latin
TTITLE0=La Chica De Humo
TTITLE1=Tengo
TTITLE2=Hay Que Arrimar El Alma
TTITLE3=Detenedla Ya
TTITLE4=Pobre Diablo
TTITLE5=Megamix (No He Podido Verte, Bella Señora, Jarro Pichao)
TTITLE6=Quiero Dormir Cansado
TTITLE7=Solo
TTITLE8=La Ultima Luna
TTITLE9=Potpurri (Con Olor A Hierba, El Dia Que Puedas, Tengo Mucho Que Aprend
TTITLE9=er De Ti, Todo Se Derrumbo Dentro De Mi, Insoportablemente Bella, Tu Y
TTITLE9=Yo, Si Ese Tiempo Pudiera Volver)
TTITLE10=Toda La Vida
EXTD=
EXTT0=
EXTT1=
EXTT2=
EXTT3=
EXTT4=
EXTT5=
EXTT6=
EXTT7=
EXTT8=
EXTT9=
EXTT10=
PLAYORDER=
